<svg xmlns="http://www.w3.org/2000/svg" width="32" height="16" viewBox="0 0 32 16" xml:space="preserve">
  <defs/>
  <path fill="#de0b7a" d="M0 0v16h32V0H0zm11.05 12.92H4.23v-1.17l5.16-7.51H4.33V3.08h6.62v1.17l-5.13 7.51h5.23v1.16zm5.82 0c-.66.01-1.31.01-1.97.01-.72 0-1.24-.18-1.55-.54-.31-.36-.47-.81-.47-1.35V3.08h1.41v7.76c0 .3.08.53.23.68.15.15.38.22.7.22h3.52l.07 1.1c-.64.04-1.28.07-1.94.08zm10.69-2.52c-.14.65-.36 1.17-.66 1.56s-.71.66-1.21.83c-.5.17-1.11.26-1.83.26-.68 0-1.32-.01-1.91-.04-.58-.02-1.14-.05-1.66-.09V3.08a54.46 54.46 0 013.57-.13c.72 0 1.33.09 1.83.26s.9.45 1.21.83.53.9.66 1.56c.14.65.21 1.45.21 2.4s-.07 1.75-.21 2.4z"/>
  <path fill="#de0b7a" d="M25.3 4.5c-.35-.24-.83-.36-1.44-.36-.59 0-1.12 0-1.58.01-.19 0-.37.01-.56.01v7.66c.17.01.33.01.51.02.49.01 1.03.02 1.63.02.61 0 1.09-.12 1.44-.36.35-.24.6-.64.75-1.19.15-.56.22-1.32.22-2.3 0-.98-.07-1.75-.22-2.3-.15-.57-.4-.97-.75-1.21z"/>
</svg>
