<svg xmlns="http://www.w3.org/2000/svg" width="32" height="16" viewBox="0 0 32 16" xml:space="preserve">
  <defs/>
  <path fill="#de0b7a" d="M0 0v16h32V0H0zm29.95 14.04H2.05V1.96h27.9v12.08z"/>
  <path fill="#de0b7a" d="M11.7 11.75H6.47l5.13-7.5V3.08H4.98v1.17h5.05l-5.15 7.5v1.17h6.82zM15.55 12.94c.66 0 1.31 0 1.97-.01.66-.01 1.3-.04 1.94-.09l-.07-1.1h-3.52c-.31 0-.55-.07-.7-.22-.15-.15-.23-.37-.23-.68V3.08h-1.41v7.98c0 .54.16.99.47 1.35.31.35.83.53 1.55.53zM22.46 8.29l2.04.56c.28.07.5.15.68.25.18.1.3.25.39.45.08.2.12.48.12.83 0 .41-.06.72-.17.93-.11.21-.31.36-.58.43-.28.07-.65.11-1.13.11h-.77c-.26 0-.56-.01-.92-.02s-.82-.03-1.38-.05l-.1 1.04c.69.13 1.31.21 1.84.24s.96.04 1.28.04c.59 0 1.1-.04 1.53-.11.43-.08.78-.21 1.05-.4.27-.19.47-.46.6-.81.13-.35.19-.81.19-1.38 0-.76-.14-1.37-.43-1.82-.29-.45-.81-.77-1.57-.96l-1.98-.53c-.43-.1-.74-.26-.93-.46-.19-.2-.29-.56-.29-1.06 0-.33.04-.59.11-.79.07-.19.18-.33.34-.41.15-.09.35-.14.58-.16.24-.02.52-.03.86-.03.48 0 .97 0 1.48.01s.97.02 1.38.04l.1-1.01c-.5-.11-1.01-.19-1.52-.23-.51-.04-1-.06-1.48-.07-.57 0-1.06.03-1.47.09-.41.06-.75.18-1.01.36-.27.18-.46.44-.59.79s-.21.8-.21 1.37c0 .74.15 1.34.44 1.78.3.45.8.78 1.52.98z"/>
</svg>
